<svg xmlns="http://www.w3.org/2000/svg" viewBox="0 0 64 64" role="img" aria-label="Yu-Gi-Oh card icon">
  <defs>
    <linearGradient id="bg" x1="0" y1="0" x2="1" y2="1">
      <stop offset="0%" stop-color="#5d230f"/>
      <stop offset="100%" stop-color="#c76a2c"/>
    </linearGradient>
    <radialGradient id="swirl" cx="50%" cy="45%" r="60%">
      <stop offset="0%" stop-color="#ffcf6e"/>
      <stop offset="40%" stop-color="#d9782d"/>
      <stop offset="72%" stop-color="#8f3c17"/>
      <stop offset="100%" stop-color="#4a170b"/>
    </radialGradient>
  </defs>
  <rect x="8" y="4" width="48" height="56" rx="4" fill="url(#bg)" stroke="#f7d28b" stroke-width="2.5"/>
  <rect x="13" y="11" width="38" height="42" rx="2" fill="url(#swirl)"/>
  <path d="M18 32c7-13 25-14 29 0-5-6-14-8-20-4 8 0 13 4 13 10 0 7-7 11-14 11-9 0-16-7-14-17 1 3 3 6 6 8-1-4-1-6 0-8z" fill="#f3b04d" opacity="0.55"/>
  <rect x="16" y="14" width="18" height="4" rx="1.5" fill="#f3d7a0" opacity="0.9"/>
  <rect x="16" y="49" width="32" height="2.5" rx="1.25" fill="#f3d7a0" opacity="0.85"/>
</svg>
